<svg xmlns="http://www.w3.org/2000/svg" viewBox="0 0 32 32" shape-rendering="crispEdges">
  <!-- Cat head matching exact PixelKittens style -->
  <!-- hx=10, hy=11 for centering -->
  
  <!-- Ears (triangular shape) -->
  <rect x="11" y="9" width="2" height="1" fill="#F4A460"/>
  <rect x="19" y="9" width="2" height="1" fill="#F4A460"/>
  <rect x="11" y="10" width="3" height="1" fill="#F4A460"/>
  <rect x="18" y="10" width="3" height="1" fill="#F4A460"/>
  
  <!-- Main head rectangle (12x10) -->
  <rect x="10" y="11" width="12" height="10" fill="#F4A460"/>
  
  <!-- Eyes - cute style (3x2 at hx+2 and hx+7) -->
  <rect x="12" y="15" width="3" height="2" fill="#2980B9"/>
  <rect x="17" y="15" width="3" height="2" fill="#2980B9"/>
  
  <!-- Pupils -->
  <rect x="13" y="15" width="1" height="2" fill="#000000"/>
  <rect x="18" y="15" width="1" height="2" fill="#000000"/>
  
  <!-- Highlights for sparkle -->
  <rect x="13" y="15" width="1" height="1" fill="#FFFFFF"/>
  <rect x="18" y="15" width="1" height="1" fill="#FFFFFF"/>
  
  <!-- Nose (2x1 at hx+5, hy+7) -->
  <rect x="15" y="18" width="2" height="1" fill="#000000"/>
  
  <!-- Smile -->
  <rect x="13" y="19" width="1" height="1" fill="#000000"/>
  <rect x="14" y="20" width="2" height="1" fill="#000000"/>
  <rect x="16" y="20" width="2" height="1" fill="#000000"/>
  <rect x="18" y="19" width="1" height="1" fill="#000000"/>
  
  <!-- Whiskers -->
  <rect x="8" y="18" width="3" height="1" fill="#AAAAAA"/>
  <rect x="21" y="18" width="3" height="1" fill="#AAAAAA"/>
</svg>
