<svg xmlns="http://www.w3.org/2000/svg" viewBox="0 0 32 32" shape-rendering="crispEdges">
  <!-- PixelKitten loaf pose - transparent background -->
  <!-- Loaf pose: hx=10, hy=7 -->
  
  <!-- Ears -->
  <rect x="11" y="5" width="2" height="1" fill="#F4A460"/>
  <rect x="19" y="5" width="2" height="1" fill="#F4A460"/>
  <rect x="11" y="6" width="3" height="1" fill="#F4A460"/>
  <rect x="18" y="6" width="3" height="1" fill="#F4A460"/>
  
  <!-- Head (12x10) -->
  <rect x="10" y="7" width="12" height="10" fill="#F4A460"/>
  
  <!-- Eyes with kawaii style -->
  <rect x="12" y="11" width="3" height="3" fill="#2980B9"/>
  <rect x="17" y="11" width="3" height="3" fill="#2980B9"/>
  <rect x="13" y="12" width="2" height="1" fill="#000000"/>
  <rect x="18" y="12" width="2" height="1" fill="#000000"/>
  <rect x="12" y="11" width="1" height="1" fill="#FFFFFF"/>
  <rect x="17" y="11" width="1" height="1" fill="#FFFFFF"/>
  
  <!-- Nose -->
  <rect x="15" y="14" width="2" height="1" fill="#000000"/>
  
  <!-- Tongue out expression -->
  <rect x="14" y="15" width="1" height="1" fill="#000000"/>
  <rect x="17" y="15" width="1" height="1" fill="#000000"/>
  <rect x="15" y="16" width="2" height="1" fill="#FF69B4"/>
  
  <!-- Whiskers -->
  <rect x="8" y="14" width="3" height="1" fill="#AAAAAA"/>
  <rect x="21" y="14" width="3" height="1" fill="#AAAAAA"/>
  
  <!-- Body (loaf shape 12x5 at 10,17) -->
  <rect x="10" y="17" width="12" height="5" fill="#F4A460"/>
  
  <!-- Tail -->
  <rect x="20" y="22" width="4" height="1" fill="#F4A460"/>
</svg>
