<svg xmlns="http://www.w3.org/2000/svg" viewBox="0 0 160 40" shape-rendering="crispEdges">
  <!-- Dark background -->
  <rect width="160" height="40" fill="#1a0033"/>
  
  <!-- Three PixelKittens showing variety - exact contract style -->
  
  <!-- Cat 1 - Orange with cute eyes (loaf pose, hx=0, hy=2) -->
  <g transform="translate(4, 12)">
    <!-- Ears -->
    <rect x="1" y="0" width="2" height="1" fill="#F4A460"/>
    <rect x="9" y="0" width="2" height="1" fill="#F4A460"/>
    <rect x="1" y="1" width="3" height="1" fill="#F4A460"/>
    <rect x="8" y="1" width="3" height="1" fill="#F4A460"/>
    <!-- Head -->
    <rect x="0" y="2" width="12" height="10" fill="#F4A460"/>
    <!-- Eyes -->
    <rect x="2" y="6" width="3" height="2" fill="#2980B9"/>
    <rect x="7" y="6" width="3" height="2" fill="#2980B9"/>
    <rect x="3" y="6" width="1" height="2" fill="#000000"/>
    <rect x="8" y="6" width="1" height="2" fill="#000000"/>
    <rect x="3" y="6" width="1" height="1" fill="#FFFFFF"/>
    <rect x="8" y="6" width="1" height="1" fill="#FFFFFF"/>
    <!-- Nose -->
    <rect x="5" y="9" width="2" height="1" fill="#000000"/>
    <!-- Whiskers (FIXED: -2 and +11 from head x=0, at y=9) -->
    <rect x="-2" y="9" width="3" height="1" fill="#AAAAAA"/>
    <rect x="11" y="9" width="3" height="1" fill="#AAAAAA"/>
    <!-- Body loaf -->
    <rect x="0" y="12" width="12" height="4" fill="#F4A460"/>
  </g>
  
  <!-- Cat 2 - Gray with heart eyes (hx=0, hy=2) -->
  <g transform="translate(22, 12)">
    <!-- Ears -->
    <rect x="1" y="0" width="2" height="1" fill="#888888"/>
    <rect x="9" y="0" width="2" height="1" fill="#888888"/>
    <rect x="1" y="1" width="3" height="1" fill="#888888"/>
    <rect x="8" y="1" width="3" height="1" fill="#888888"/>
    <!-- Head -->
    <rect x="0" y="2" width="12" height="10" fill="#888888"/>
    <!-- Heart eyes -->
    <rect x="2" y="6" width="3" height="2" fill="#FF69B4"/>
    <rect x="7" y="6" width="3" height="2" fill="#FF69B4"/>
    <rect x="3" y="6" width="1" height="1" fill="#FF1493"/>
    <rect x="8" y="6" width="1" height="1" fill="#FF1493"/>
    <!-- Nose -->
    <rect x="5" y="9" width="2" height="1" fill="#000000"/>
    <!-- Whiskers (FIXED) -->
    <rect x="-2" y="9" width="3" height="1" fill="#AAAAAA"/>
    <rect x="11" y="9" width="3" height="1" fill="#AAAAAA"/>
    <!-- Body loaf -->
    <rect x="0" y="12" width="12" height="4" fill="#888888"/>
  </g>
  
  <!-- Cat 3 - Brown tabby with sleepy eyes (hx=0, hy=2) -->
  <g transform="translate(40, 12)">
    <!-- Ears -->
    <rect x="1" y="0" width="2" height="1" fill="#A0522D"/>
    <rect x="9" y="0" width="2" height="1" fill="#A0522D"/>
    <rect x="1" y="1" width="3" height="1" fill="#A0522D"/>
    <rect x="8" y="1" width="3" height="1" fill="#A0522D"/>
    <!-- Head -->
    <rect x="0" y="2" width="12" height="10" fill="#A0522D"/>
    <!-- Sleepy eyes -->
    <rect x="2" y="7" width="3" height="1" fill="#E67E22"/>
    <rect x="7" y="7" width="3" height="1" fill="#E67E22"/>
    <rect x="3" y="7" width="1" height="1" fill="#000000"/>
    <rect x="8" y="7" width="1" height="1" fill="#000000"/>
    <!-- Nose -->
    <rect x="5" y="9" width="2" height="1" fill="#000000"/>
    <!-- Whiskers (FIXED) -->
    <rect x="-2" y="9" width="3" height="1" fill="#AAAAAA"/>
    <rect x="11" y="9" width="3" height="1" fill="#AAAAAA"/>
    <!-- Body loaf -->
    <rect x="0" y="12" width="12" height="4" fill="#A0522D"/>
    <!-- Tabby stripes -->
    <rect x="1" y="13" width="10" height="1" fill="#00000033"/>
  </g>
  
  <!-- Text "PixelKittens" -->
  <text x="64" y="24" font-family="monospace" font-size="14" font-weight="bold" fill="#FF71CE">PixelKittens</text>
  <text x="64" y="34" font-family="monospace" font-size="7" fill="#01CDFE">On-Chain Cats</text>
</svg>
