<svg xmlns="http://www.w3.org/2000/svg" viewBox="0 0 32 32" shape-rendering="crispEdges">
  <!-- Full PixelKitten sitting pose - transparent background -->
  <!-- Sit pose: hx=10, hy=6 -->
  
  <!-- Ears -->
  <rect x="11" y="4" width="2" height="1" fill="#F4A460"/>
  <rect x="19" y="4" width="2" height="1" fill="#F4A460"/>
  <rect x="11" y="5" width="3" height="1" fill="#F4A460"/>
  <rect x="18" y="5" width="3" height="1" fill="#F4A460"/>
  
  <!-- Head (12x10) -->
  <rect x="10" y="6" width="12" height="10" fill="#F4A460"/>
  
  <!-- Eyes (3x2) -->
  <rect x="12" y="10" width="3" height="2" fill="#2980B9"/>
  <rect x="17" y="10" width="3" height="2" fill="#2980B9"/>
  <rect x="13" y="10" width="1" height="2" fill="#000000"/>
  <rect x="18" y="10" width="1" height="2" fill="#000000"/>
  <rect x="13" y="10" width="1" height="1" fill="#FFFFFF"/>
  <rect x="18" y="10" width="1" height="1" fill="#FFFFFF"/>
  
  <!-- Nose -->
  <rect x="15" y="13" width="2" height="1" fill="#000000"/>
  
  <!-- Smile -->
  <rect x="13" y="14" width="1" height="1" fill="#000000"/>
  <rect x="14" y="15" width="2" height="1" fill="#000000"/>
  <rect x="16" y="15" width="2" height="1" fill="#000000"/>
  <rect x="18" y="14" width="1" height="1" fill="#000000"/>
  
  <!-- Whiskers -->
  <rect x="8" y="13" width="3" height="1" fill="#AAAAAA"/>
  <rect x="21" y="13" width="3" height="1" fill="#AAAAAA"/>
  
  <!-- Body (10x7 at 11,16) -->
  <rect x="11" y="16" width="10" height="7" fill="#F4A460"/>
  
  <!-- Front legs -->
  <rect x="11" y="23" width="3" height="2" fill="#F4A460"/>
  <rect x="18" y="23" width="3" height="2" fill="#F4A460"/>
  
  <!-- Tail -->
  <rect x="22" y="17" width="2" height="6" fill="#F4A460"/>
  <rect x="22" y="16" width="3" height="1" fill="#F4A460"/>
</svg>
